<?xml version="1.0" encoding="UTF-8"?>
<!DOCTYPE svg PUBLIC "-//W3C//DTD SVG 1.1//EN" "http://www.w3.org/Graphics/SVG/1.1/DTD/svg11.dtd">
<!-- Creator: CorelDRAW X7 -->
<svg xmlns="http://www.w3.org/2000/svg" xml:space="preserve" width="8.19369in" height="4.69065in" version="1.1" style="shape-rendering:geometricPrecision; text-rendering:geometricPrecision; image-rendering:optimizeQuality; fill-rule:evenodd; clip-rule:evenodd"
viewBox="0 0 10247 5866"
 xmlns:xlink="http://www.w3.org/1999/xlink">
 <defs>
  <style type="text/css">
   <![CDATA[
    .str0 {stroke:#00A859;stroke-width:34.7353}
    .str1 {stroke:#00A859;stroke-width:8.68506}
    .fil0 {fill:#00A859}
   ]]>
  </style>
 </defs>
 <g id="Layer_x0020_1">
  <metadata id="CorelCorpID_0Corel-Layer"/>
  <g id="_1724330223488">
   <path class="fil0 str0" d="M1003 104c47,-24 28,-37 79,-37l289 62c-33,20 -74,-5 -103,13 2,2 7,3 9,4l85 18c114,12 110,50 191,44 76,-7 13,-10 79,-27 -17,72 -114,68 -172,115 -28,22 17,14 -50,27l-180 30c-94,23 -317,54 -394,113l-39 29c342,23 258,-5 527,-104 25,-9 20,-8 36,-8 31,-1 7,-5 25,6 -45,38 -232,103 -301,131 -76,32 -79,16 -181,13 -219,-6 -237,-11 -311,92 -30,42 -57,79 -87,121 -77,107 -148,252 -161,268 25,39 21,16 50,53 -77,66 -86,0 -130,129 -21,61 -16,155 -6,231 17,145 29,331 33,474 5,167 -6,270 124,383 80,69 216,142 283,213 81,86 77,265 155,352 284,317 443,421 704,796 109,157 224,441 270,484 45,42 82,77 128,120 115,112 536,532 651,612 77,53 416,185 517,226 192,78 217,64 406,103 324,66 964,277 1254,237 105,-14 286,-74 401,-106 315,-87 539,-110 863,-57 220,35 221,21 420,-28 314,-76 908,-209 1204,-307 366,-122 305,-205 427,-328 153,-155 524,-371 564,-686 47,-359 -72,-467 -205,-762 -68,-152 -205,-136 -312,-55 -57,-41 -8,-26 -89,-40 -123,-21 -49,-78 -245,-104 -86,-12 -111,-27 -191,-4 -437,123 -523,-11 -742,313 -76,113 -151,51 -251,2 -210,-104 -90,110 -340,40 -68,-19 -106,-34 -167,-67 -107,-58 -235,-89 -358,-124 -288,-81 -119,-114 -313,-158 -42,66 -110,189 -216,114 -62,-43 -27,-47 -124,-72 -209,-53 -200,-123 -407,-179 -131,-36 -206,-23 -238,-155 -36,-148 -37,-164 -150,-239 -61,-42 -61,-35 -89,-108 -171,-436 -217,-552 -334,-1021 -19,-79 -14,-83 -71,-124 -118,-85 -147,-238 -248,-338 -141,-138 -366,-157 -563,-218 -228,-71 -547,-369 -779,-385 -38,58 -113,121 -166,174 -44,44 -119,150 -185,149l353 -360c203,49 346,158 524,257 73,40 179,111 255,136 378,122 523,62 727,446 76,142 135,94 171,221 29,102 55,197 82,295 29,102 55,200 85,306 44,152 109,280 164,422 78,201 191,100 244,343 34,159 67,128 220,169 203,55 210,131 407,180 96,24 66,23 126,70 104,82 164,-67 211,-120 90,48 76,15 154,93 79,81 247,94 357,125 130,36 211,106 340,142 119,34 98,22 165,-39 110,-99 199,54 341,56 46,-9 87,-101 112,-136 126,-179 313,-150 513,-192 183,-37 185,-68 382,-43 216,28 111,73 256,98 70,13 28,5 79,37 124,-63 247,-93 332,72l81 181c29,58 54,110 83,164 65,123 64,284 50,429 -31,325 -398,550 -570,707 -46,43 -62,94 -101,146 -29,39 -106,85 -147,114 -158,109 -1179,339 -1375,385 -198,45 -205,71 -432,38 -187,-28 -252,-45 -449,-33 -324,21 -588,157 -824,191 -204,29 -675,-94 -859,-137 -137,-33 -269,-68 -409,-99 -181,-39 -223,-26 -407,-101 -117,-48 -238,-102 -354,-154 -157,-70 -186,-81 -308,-200 -209,-204 -460,-416 -658,-620 -38,-39 -183,-430 -481,-769 -84,-96 -161,-171 -249,-260 -45,-46 -80,-88 -125,-135 -40,-40 -88,-83 -123,-124 -66,-79 -80,-284 -157,-352 -42,-38 -101,-75 -149,-111 -252,-189 -239,-180 -252,-505 -7,-149 -26,-321 -37,-469 -10,-130 -26,-316 117,-351 -32,-43 -36,-36 -7,-95l165 -267c104,-150 121,-214 311,-249 17,-48 23,-113 41,-166 29,-86 49,-49 123,-81l-10 -70c-209,105 -165,23 -258,252 -95,231 -271,66 -356,163 -75,155 -20,339 -253,362 8,63 39,77 40,150 0,70 -24,105 -24,196 0,135 -41,228 -66,347 -17,83 30,61 37,161 9,128 -75,177 27,334l84 124c31,54 66,64 97,112 58,91 5,49 102,105 41,24 83,56 114,95 188,241 28,312 144,482 152,222 102,28 240,125 218,153 244,464 372,656 37,56 72,36 133,76l313 313c32,35 48,71 88,120 32,38 59,80 94,115l217 199c43,26 247,77 288,130 51,66 45,48 27,134 174,100 666,297 883,324 70,9 105,31 152,44 31,9 134,17 182,26 166,28 168,49 301,102 168,66 29,133 290,104 391,-44 912,154 1034,34 66,-65 240,-63 336,-71 197,-16 43,58 351,-23 72,-19 96,-18 172,-25l512 -99c98,-27 225,-52 319,-85 44,-16 92,-48 143,-44 78,6 67,51 152,-13 141,-107 155,-57 328,-88 90,-17 55,-41 145,-21 204,45 99,45 209,-17 32,-18 39,-13 80,-22 76,-17 77,-47 125,-86 30,-24 671,-271 731,-263 88,11 68,30 171,5 59,-15 82,-48 137,-54 61,-7 149,30 280,-102 34,-34 70,-61 114,-93 242,-178 67,-62 274,-130 120,-40 157,-93 226,-178 67,-83 163,-101 155,-246 -11,-188 -191,-412 -333,-473 -145,-63 -16,6 -286,47 -186,29 -286,-16 -416,-62 -100,-35 12,39 -233,-80 -105,-51 -180,-91 -210,-202 -160,38 -200,13 -285,-72l-329 -348c-22,-19 -127,-85 -142,-158 -15,-71 25,-65 -57,-116 -73,13 -5,26 -104,42 -47,7 -85,15 -120,27 -29,-42 -32,-36 -68,-73l-123 -163c-180,-184 -170,-326 -332,-424 -158,-95 -72,-82 -336,-251 -70,-44 -66,-99 -146,-153 -271,-181 -74,-242 -541,-344 -83,-19 -176,-28 -237,-64 -95,-55 -114,-41 -229,-70 -56,-14 -139,-67 -190,-96 -443,-259 -227,-103 -674,-226l-218 -68c-185,-33 -262,-92 -426,-173 -104,-52 -387,-62 -509,-78 -350,-43 -398,-52 -761,-137 -72,-17 -693,-122 -771,-121 -53,1 -76,19 -108,40 -32,21 -66,36 -100,56 -152,87 -283,-33 -447,-75 -273,-69 -234,-22 -389,-11 -80,6 -82,-5 -106,61z"/>
   <path class="fil0" d="M223 4869c111,56 -19,200 -63,236 -18,99 -4,54 21,99 16,29 8,37 23,66 205,46 247,-99 569,-70l144 47c177,97 310,39 560,106 70,18 127,9 197,24 222,47 133,123 301,110 79,-6 282,87 321,115 49,36 50,62 117,104 109,69 252,196 478,150 51,-149 71,-130 -153,-305 -103,-80 -191,-113 -257,-160 -121,-87 -525,-455 -656,-595 -118,-129 -163,-16 -247,-157l-174 -242c-41,-45 -107,-94 -158,-129 -365,-247 -365,-334 -430,-390 -21,-18 -63,-42 -62,-77 1,-31 2,-19 54,-38 36,-13 4,8 31,-12l4 -39c-44,-44 -84,-24 -111,-3 -35,26 -12,28 -144,42 -106,12 -176,-29 -300,23 -170,72 -166,314 -288,420 7,59 -1,126 4,182 5,50 8,25 21,70l33 253c21,79 52,47 63,140 74,1 65,-13 102,30z"/>
   <path class="fil0 str1" d="M592 625l206 -253 46 -117 95 -80 54 -81 28 -1 146 -33 339 71 291 172c0,0 -113,241 -132,262 -20,22 -426,191 -426,191 0,0 -475,22 -497,0 -22,-21 -150,-131 -150,-131z"/>
   <path class="fil0 str1" d="M295 1018l-65 594 68 574 486 600 504 752 800 1026 1232 616 1042 233 1706 -117 1807 -423 1631 -884c0,0 -844,-507 -946,-667 -103,-159 -1627,-1262 -1627,-1262l-2675 -1245 -2026 -621 -847 195 -880 379 -210 250z"/>
  </g>
 </g>
</svg>
