<?xml version="1.0" encoding="iso-8859-1"?>
<!-- Generator: Adobe Illustrator 19.0.0, SVG Export Plug-In . SVG Version: 6.00 Build 0)  -->
<svg xmlns="http://www.w3.org/2000/svg" xmlns:xlink="http://www.w3.org/1999/xlink" version="1.1" id="Capa_1" x="0px" y="0px" viewBox="0 0 512 512" style="enable-background:new 0 0 512 512;" xml:space="preserve" width="512px" height="512px">
<g>
	<g>
		<path d="M490.667,352v-42.667c0-12.8-8.533-21.333-21.333-21.333H256v64h-21.333v-64h-64c-12.8,0-21.333,8.533-21.333,21.333V352    H128v-64c0-12.8-8.533-21.333-21.333-21.333h-64v-64c0-12.8-8.533-21.333-21.333-21.333H0V480h42.667v-85.333h426.667V480H512V352    H490.667z" fill="#FFFFFF"/>
	</g>
</g>
<g>
	<g>
		<path d="M221.867,160l27.733-27.733C262.4,119.467,253.867,96,234.667,96h-85.333v42.667h34.133L155.733,166.4    c-12.8,12.8-4.267,36.267,14.933,36.267H256V160H221.867z" fill="#FFFFFF"/>
	</g>
</g>
<g>
	<g>
		<path d="M371.2,96l27.733-27.733C411.733,55.467,403.2,32,384,32h-85.333v42.667H332.8L305.067,102.4    c-12.8,12.8-4.267,36.267,14.933,36.267h85.333V96H371.2z" fill="#FFFFFF"/>
	</g>
</g>
<g>
</g>
<g>
</g>
<g>
</g>
<g>
</g>
<g>
</g>
<g>
</g>
<g>
</g>
<g>
</g>
<g>
</g>
<g>
</g>
<g>
</g>
<g>
</g>
<g>
</g>
<g>
</g>
<g>
</g>
</svg>
