<?xml version="1.0" encoding="UTF-8"?>
<!DOCTYPE svg PUBLIC "-//W3C//DTD SVG 1.1//EN" "http://www.w3.org/Graphics/SVG/1.1/DTD/svg11.dtd">
<!-- Creator: CorelDRAW X7 -->
<svg xmlns="http://www.w3.org/2000/svg" xml:space="preserve" width="135.467mm" height="103.495mm" version="1.1" style="shape-rendering:geometricPrecision; text-rendering:geometricPrecision; image-rendering:optimizeQuality; fill-rule:evenodd; clip-rule:evenodd"
viewBox="0 0 6023 4602"
 xmlns:xlink="http://www.w3.org/1999/xlink">
 <defs>
  <style type="text/css">
   <![CDATA[
    .fil0 {fill:#FEFEFE}
   ]]>
  </style>
 </defs>
 <g id="Layer_x0020_1">
  <metadata id="CorelCorpID_0Corel-Layer"/>
  <g id="_2135364973264">
   <g>
    <g>
     <g>
      <path class="fil0" d="M921 0c0,0 0,0 0,0 -57,0 -111,22 -151,63 -41,40 -64,95 -64,153l0 3232c0,118 97,215 216,215 502,1 1342,106 1922,713l0 -3383c0,-40 -10,-78 -29,-109 -476,-766 -1391,-883 -1894,-884z"/>
      <path class="fil0" d="M5317 3448l0 -3232c0,-58 -23,-113 -64,-153 -40,-41 -94,-63 -151,-63 0,0 0,0 0,0 -503,1 -1417,118 -1893,884 -20,31 -30,69 -30,109l0 3383c580,-607 1420,-712 1922,-713 119,0 216,-97 216,-215z"/>
      <path class="fil0" d="M5808 745l-157 0 0 2703c0,302 -246,549 -549,550 -426,1 -1127,84 -1624,554 859,-210 1765,-73 2281,44 65,15 132,0 183,-41 52,-42 81,-103 81,-169l0 -3425c0,-119 -96,-216 -215,-216z"/>
      <path class="fil0" d="M372 3448l0 -2703 -157 0c-118,0 -215,97 -215,216l0 3425c0,66 30,127 81,168 52,42 118,57 183,42 516,-118 1422,-254 2281,-44 -496,-470 -1198,-553 -1624,-554 -303,-1 -549,-248 -549,-550z"/>
     </g>
    </g>
   </g>
   <g>
   </g>
   <g>
   </g>
   <g>
   </g>
   <g>
   </g>
   <g>
   </g>
   <g>
   </g>
   <g>
   </g>
   <g>
   </g>
   <g>
   </g>
   <g>
   </g>
   <g>
   </g>
   <g>
   </g>
   <g>
   </g>
   <g>
   </g>
   <g>
   </g>
  </g>
 </g>
</svg>
