<?xml version="1.0" encoding="UTF-8"?>
<!DOCTYPE svg PUBLIC "-//W3C//DTD SVG 1.1//EN" "http://www.w3.org/Graphics/SVG/1.1/DTD/svg11.dtd">
<!-- Creator: CorelDRAW X7 -->
<svg xmlns="http://www.w3.org/2000/svg" xml:space="preserve" width="117.162mm" height="135.484mm" version="1.1" style="shape-rendering:geometricPrecision; text-rendering:geometricPrecision; image-rendering:optimizeQuality; fill-rule:evenodd; clip-rule:evenodd"
viewBox="0 0 1949 2254"
 xmlns:xlink="http://www.w3.org/1999/xlink">
 <defs>
  <style type="text/css">
   <![CDATA[
    .fil0 {fill:#FEFEFE}
   ]]>
  </style>
 </defs>
 <g id="Layer_x0020_1">
  <metadata id="CorelCorpID_0Corel-Layer"/>
  <g id="_2135453766896">
   <g>
    <path class="fil0" d="M1937 2166c-135,-159 -376,-281 -668,-330 -29,-171 -80,-251 -81,-253 22,-11 49,-14 80,-8 37,9 62,29 78,54 4,7 16,5 17,-4 2,-12 1,-26 -3,-41 -10,-38 -40,-69 -78,-77 -25,-5 -49,-1 -70,10 19,-17 43,-30 73,-40 63,-20 118,-10 161,17 7,5 16,-2 14,-10 -8,-26 -22,-51 -48,-74 -44,-39 -106,-56 -162,-38 -18,6 -34,15 -48,26 1,-1 2,-3 3,-4 41,-48 91,-69 139,-70 11,-1 16,-14 8,-21 -18,-15 -39,-26 -67,-32 -62,-13 -128,5 -167,55 -15,18 -24,38 -30,59 -17,-14 -37,-24 -59,-30 -61,-18 -125,5 -168,52 -19,21 -29,42 -35,63 -3,11 10,20 19,14 40,-27 92,-39 153,-24 2,1 4,1 5,2 -18,-1 -36,1 -54,7 -57,18 -97,67 -110,125 -8,33 -5,61 4,85 3,9 15,9 19,1 19,-47 58,-86 120,-106 29,-9 57,-12 82,-10 -23,3 -46,14 -63,33 -26,29 -32,71 -18,108 5,15 12,26 21,35 6,6 17,2 16,-7 -2,-29 7,-60 33,-88 19,-22 42,-36 64,-40l0 0c0,0 36,88 41,216 -60,-7 -121,-10 -184,-10 -153,0 -299,19 -431,54 28,-597 395,-992 395,-994l0 0c45,30 83,76 108,140 32,84 27,159 -2,222 -9,18 11,37 29,28 27,-12 53,-31 76,-59 59,-69 82,-166 49,-251 -22,-55 -62,-97 -110,-124 57,16 115,45 171,90 119,95 172,212 176,329 0,22 27,32 41,15 39,-46 69,-106 79,-184 18,-137 -29,-278 -137,-363 -35,-27 -73,-47 -113,-61 4,1 8,1 12,1 145,18 249,85 315,177 15,21 50,12 53,-14 5,-51 -2,-106 -25,-166 -55,-138 -176,-241 -324,-253 -53,-5 -105,2 -153,18 5,-51 -1,-102 -17,-153 -46,-141 -173,-236 -320,-259 -65,-9 -122,-2 -171,15 -24,8 -25,42 -2,52 106,42 197,129 247,269 2,3 3,7 4,11 -22,-36 -50,-69 -85,-97 -107,-86 -255,-100 -384,-51 -77,28 -128,72 -165,122 -12,16 2,38 22,34 116,-24 244,-1 366,96 56,45 97,94 126,147 -37,-42 -87,-71 -146,-80 -90,-13 -179,31 -233,104 -22,29 -34,59 -41,87 -4,20 19,35 35,22 54,-42 127,-64 215,-52 73,11 128,40 168,82 -7,6 -450,336 -740,1348 -18,17 -34,34 -49,52 -30,35 -5,89 41,89l1841 0c45,1 71,-53 42,-88z"/>
   </g>
   <g>
   </g>
   <g>
   </g>
   <g>
   </g>
   <g>
   </g>
   <g>
   </g>
   <g>
   </g>
   <g>
   </g>
   <g>
   </g>
   <g>
   </g>
   <g>
   </g>
   <g>
   </g>
   <g>
   </g>
   <g>
   </g>
   <g>
   </g>
   <g>
   </g>
  </g>
 </g>
</svg>
