<?xml version="1.0" encoding="UTF-8"?>
<!DOCTYPE svg PUBLIC "-//W3C//DTD SVG 1.1//EN" "http://www.w3.org/Graphics/SVG/1.1/DTD/svg11.dtd">
<!-- Creator: CorelDRAW X7 -->
<svg xmlns="http://www.w3.org/2000/svg" xml:space="preserve" width="8.5in" height="11in" version="1.1" style="shape-rendering:geometricPrecision; text-rendering:geometricPrecision; image-rendering:optimizeQuality; fill-rule:evenodd; clip-rule:evenodd"
viewBox="0 0 8500 11000"
 xmlns:xlink="http://www.w3.org/1999/xlink">
 <defs>
  <style type="text/css">
   <![CDATA[
    .str0 {stroke:#FEFEFE;stroke-width:41.6654}
    .fil0 {fill:none}
   ]]>
  </style>
 </defs>
 <g id="Layer_x0020_1">
  <metadata id="CorelCorpID_0Corel-Layer"/>
  <g id="_2198114021424">
   <path class="fil0 str0" d="M284 -9327c0,28 3,45 13,65 5,10 9,15 12,27 14,53 -3,102 -11,153 -4,22 -1,42 -2,65 -1,17 -5,47 -7,63 -11,75 -48,150 -48,223 0,25 11,36 19,51 33,61 -7,144 -7,204 0,58 34,106 64,151 11,16 20,29 30,44 53,80 76,83 99,122 27,45 22,50 71,74 48,25 85,60 116,104 112,158 4,230 102,368 19,27 38,53 63,74 51,42 55,-32 134,27 43,32 71,69 100,112 18,24 31,54 44,82l74 181c19,50 42,94 68,139 20,33 46,37 80,50 36,14 57,44 84,70 0,0 1,1 2,1l15 16c5,5 5,5 10,10 6,6 3,2 10,10l65 64c7,6 5,5 10,10l84 84 128 170 108 100c39,34 69,74 119,94 21,8 42,15 63,23 42,14 84,28 117,51 9,6 35,38 39,48 6,16 -9,48 -9,72 24,5 53,26 76,38 95,48 273,122 373,152 45,13 88,31 134,43 34,8 58,17 94,23 107,17 131,37 186,46 68,11 138,15 201,33 63,18 108,44 165,67 86,36 60,88 147,88 66,0 129,-12 197,-12 100,0 196,15 286,28 99,13 304,59 400,24 66,-24 34,-47 156,-64 46,-6 184,-22 232,-7 72,24 160,-18 231,-32 24,-5 46,-5 73,-9 85,-12 397,-70 470,-91l130 -31c24,-6 41,-12 64,-19 65,-17 74,-42 146,-42 69,0 20,53 143,-29 25,-16 52,-34 86,-40 19,-4 41,0 61,-2 14,-2 43,-4 56,-6 20,-4 34,-6 53,-10 81,-19 12,-27 127,-3 95,19 58,31 123,-14 49,-33 106,-21 148,-64 44,-43 76,-56 135,-77l152 -59c67,-26 265,-104 320,-104 46,0 108,35 199,-20 12,-7 22,-14 38,-18 23,-5 72,-1 97,-4 101,-15 145,-91 222,-143l122 -91c16,-11 20,-5 43,-7 27,-1 60,-14 83,-23 78,-27 125,-80 172,-141 39,-51 103,-76 123,-141 3,-12 6,-24 7,-37l0 -39c-6,-68 -40,-137 -71,-187 -35,-58 -83,-114 -136,-154 -38,-28 -119,-84 -163,-52 -9,7 -13,8 -22,13 -69,34 -157,39 -236,39 -102,0 -189,-62 -251,-62 -36,-1 -52,-14 -80,-26 -79,-32 -223,-96 -225,-194 -104,0 -130,73 -275,-99l-205 -215c-41,-52 -125,-76 -125,-157 0,-32 1,-38 -16,-54 -60,-59 -64,-8 -120,3 -15,3 -30,6 -47,8 -18,3 -32,8 -48,12 -9,-7 -13,-17 -25,-27 -14,-11 -15,-10 -26,-24 -30,-39 -59,-83 -91,-121 -41,-48 -81,-92 -112,-148 -7,-13 -14,-20 -20,-34 -12,-23 -25,-45 -40,-66 -16,-25 -26,-37 -48,-58 -19,-20 -33,-30 -57,-45 -22,-13 -42,-28 -63,-43 -21,-16 -34,-33 -56,-50l-121 -90c-21,-14 -45,-26 -60,-46 -17,-22 -29,-41 -45,-61 -20,-24 -86,-63 -115,-93 -68,-68 -65,-108 -161,-157 -36,-18 -78,-29 -118,-39 -75,-20 -193,-36 -255,-63 -52,-22 -42,-30 -111,-46 -79,-18 -87,-13 -161,-50 -48,-25 -89,-53 -135,-78 -69,-37 -135,-85 -215,-98 -104,-18 -154,-14 -267,-50 -28,-9 -53,-17 -81,-25 -27,-8 -53,-17 -81,-25 -29,-8 -60,-14 -86,-20 -15,-4 -27,-8 -39,-13 -36,-13 -76,-28 -108,-48 -13,-7 -21,-10 -34,-17 -14,-8 -23,-12 -36,-19 -59,-29 -90,-42 -157,-55 -31,-6 -61,-8 -93,-12 -95,-14 -192,-18 -287,-31 -32,-5 -60,-7 -92,-11 -28,-4 -61,-11 -91,-15 -147,-20 -292,-67 -438,-91 -30,-5 -59,-10 -90,-16 -26,-5 -62,-9 -88,-14 -92,-18 -182,-28 -276,-42 -84,-11 -107,-14 -167,25 -30,19 -109,67 -144,67 -57,0 -94,-8 -146,-31 -99,-44 -252,-96 -359,-77l-89 16c-23,4 -47,1 -65,6 -23,8 -21,18 -33,38 -9,17 -11,10 -15,20l-1 5c-4,7 4,1 -8,9 -61,40 -137,34 -173,106 -36,71 -51,191 -151,199 -91,6 -165,-27 -196,82 -18,62 -23,157 -78,201 -36,29 -57,23 -106,35z"/>
   <path class="fil0 str0" d="M527 -7051c-34,0 -100,25 -128,51 -57,54 -71,110 -99,172 -21,45 -33,77 -65,116 -9,11 -15,13 -18,26l0 1 0 14c1,8 4,16 4,28 0,38 -9,93 6,128 12,30 10,18 14,56 5,41 17,157 27,185 13,41 43,35 43,98 84,0 49,-5 93,29 66,50 -12,134 -51,173 -14,15 -14,29 -14,57 0,12 34,29 39,86 21,2 39,8 63,8 57,0 106,-22 151,-37 76,-25 189,-46 272,-18 35,12 60,17 99,35 157,70 243,30 404,70 113,28 124,11 232,38 99,26 99,93 189,78 35,-5 87,13 112,22 53,17 142,53 179,91 31,32 19,29 71,63 81,54 178,125 283,125l1 0 46 0c12,-1 25,-1 36,-4 18,-3 16,-5 22,-21 43,-109 14,-107 -71,-182 -102,-92 -193,-121 -280,-186 -48,-36 -120,-102 -168,-142 -11,-9 -16,-17 -26,-25l-269 -250c-9,-9 -16,-16 -25,-25l-27 -28c-16,-16 -37,-35 -59,-43 -25,-9 -60,-10 -81,-21 -27,-13 -113,-141 -137,-174 -30,-42 -52,-81 -94,-113l-239 -177c-66,-52 -104,-95 -155,-159 -37,-45 -6,-13 -50,-52 -31,-28 -35,-24 -32,-66 83,-19 64,-26 71,-55 -20,-13 -40,-35 -77,-14 -34,19 -25,32 -77,37 -37,4 -61,9 -105,9 -24,0 -29,-4 -51,-5 -19,0 -39,1 -59,1z"/>
  </g>
 </g>
</svg>
