<?xml version="1.0" encoding="UTF-8"?>
<!DOCTYPE svg PUBLIC "-//W3C//DTD SVG 1.1//EN" "http://www.w3.org/Graphics/SVG/1.1/DTD/svg11.dtd">
<!-- Creator: CorelDRAW X7 -->
<svg xmlns="http://www.w3.org/2000/svg" xml:space="preserve" width="8.19668in" height="4.69198in" version="1.1" style="shape-rendering:geometricPrecision; text-rendering:geometricPrecision; image-rendering:optimizeQuality; fill-rule:evenodd; clip-rule:evenodd"
viewBox="0 0 8330 4768"
 xmlns:xlink="http://www.w3.org/1999/xlink">
 <defs>
  <style type="text/css">
   <![CDATA[
    .fil0 {fill:#64B5F6}
   ]]>
  </style>
 </defs>
 <g id="Layer_x0020_1">
  <metadata id="CorelCorpID_0Corel-Layer"/>
  <g id="_2198117269488">
   <path class="fil0" d="M68 732c0,30 3,46 13,67 5,11 9,15 12,28 15,53 -3,103 -11,155 -4,22 -1,42 -2,65 -1,18 -5,49 -8,65 -10,76 -48,152 -48,227 0,25 11,36 20,52 33,61 -8,146 -8,207 0,58 35,108 65,154 11,16 21,28 31,44 54,81 77,85 100,124 28,46 23,50 72,75 49,25 87,61 118,105 115,162 4,234 104,375 20,28 39,54 65,75 51,42 55,-33 136,28 43,32 71,70 101,113 18,25 31,55 45,83l74 185c20,50 43,95 71,141 19,34 46,37 80,51 37,14 58,44 85,70 1,1 2,2 2,2l16 16c5,5 5,5 10,10 6,6 3,3 11,10l66 65c6,6 5,6 9,11l86 85 130 173 110 102c40,34 70,74 120,95 22,8 43,15 65,23 43,15 85,29 119,52 9,6 36,38 39,49 6,16 -9,48 -9,73 25,5 54,27 77,38 97,49 277,124 380,155 46,13 89,32 135,44 35,8 59,17 96,23 109,18 133,38 189,47 69,11 141,16 205,34 63,18 110,44 167,68 88,36 61,89 150,89 67,0 130,-12 199,-12 102,0 200,15 291,28 101,14 309,60 407,25 66,-24 34,-48 158,-66 47,-6 188,-22 236,-6 73,24 162,-18 235,-33 24,-5 46,-5 74,-9 87,-12 404,-72 478,-93l132 -31c24,-6 42,-13 65,-19 66,-18 75,-43 148,-43 70,0 21,54 146,-30 25,-16 52,-34 87,-40 20,-4 41,0 61,-2 15,-2 45,-4 58,-7 21,-3 34,-5 54,-10 82,-19 12,-27 129,-3 97,20 59,32 125,-14 49,-34 107,-21 150,-65 44,-44 77,-57 137,-78l155 -61c68,-26 269,-105 325,-105 46,0 109,36 203,-21 12,-7 22,-14 38,-17 23,-5 73,-1 99,-5 102,-14 147,-92 225,-145l124 -92c17,-12 20,-6 44,-7 27,-2 61,-15 85,-23 78,-29 126,-82 174,-145 40,-51 104,-77 125,-142 3,-13 6,-25 7,-38l0 -39c-6,-70 -41,-140 -72,-191 -35,-59 -84,-115 -139,-156 -38,-29 -120,-86 -165,-53 -9,7 -13,9 -23,13 -69,35 -159,40 -239,40 -104,0 -192,-63 -255,-64 -37,0 -54,-13 -82,-25 -80,-33 -226,-98 -229,-198 -105,0 -132,74 -278,-100l-209 -218c-42,-54 -127,-78 -127,-160 0,-32 1,-39 -16,-56 -62,-60 -66,-7 -123,4 -15,3 -30,5 -47,8 -19,3 -32,8 -49,12 -9,-7 -13,-17 -25,-27 -14,-12 -15,-10 -27,-25 -30,-40 -60,-84 -92,-123 -42,-48 -82,-93 -113,-150 -8,-14 -15,-21 -22,-34 -12,-24 -25,-46 -39,-68 -17,-26 -28,-37 -49,-59 -20,-20 -34,-30 -59,-45 -22,-13 -42,-29 -63,-44 -22,-16 -36,-33 -57,-51l-124 -91c-21,-15 -45,-27 -61,-47 -17,-22 -29,-41 -46,-62 -19,-25 -87,-65 -116,-95 -69,-69 -67,-110 -164,-159 -37,-18 -79,-30 -119,-40 -76,-20 -197,-36 -260,-64 -52,-22 -42,-30 -112,-46 -81,-19 -89,-13 -164,-52 -49,-25 -91,-53 -137,-78 -70,-38 -137,-87 -219,-101 -106,-17 -156,-13 -272,-50 -28,-9 -53,-18 -82,-26 -27,-7 -54,-17 -82,-25 -29,-8 -61,-14 -87,-21 -15,-4 -27,-8 -40,-12 -37,-13 -77,-29 -110,-49 -12,-8 -21,-10 -34,-18 -14,-7 -23,-12 -37,-19 -60,-30 -91,-43 -159,-56 -32,-6 -62,-8 -95,-12 -96,-14 -195,-18 -292,-32 -32,-5 -60,-7 -93,-11 -29,-3 -62,-11 -92,-15 -150,-20 -297,-67 -446,-92 -30,-5 -60,-11 -91,-17 -26,-5 -63,-8 -90,-14 -93,-18 -184,-29 -280,-42 -85,-12 -109,-15 -170,25 -30,19 -110,68 -146,68 -58,0 -96,-8 -148,-32 -101,-45 -256,-97 -365,-78l-91 17c-23,3 -47,0 -65,6 -24,8 -23,18 -34,38 -10,17 -11,10 -16,21l-1 4c-3,7 4,2 -8,10 -61,40 -139,34 -176,107 -36,73 -51,195 -153,202 -92,7 -168,-26 -199,84 -19,63 -23,160 -79,204 -37,30 -59,24 -108,35z"/>
   <path class="fil0" d="M315 3045c-35,0 -102,27 -131,53 -58,54 -72,112 -100,175 -21,45 -34,78 -66,118 -9,11 -16,12 -18,26l0 1 0 14c1,8 4,16 4,28 0,40 -9,95 5,130 13,31 11,19 15,57 5,42 18,160 27,189 14,41 45,35 45,99 85,0 49,-5 94,29 67,52 -13,137 -52,177 -14,14 -14,28 -14,57 0,13 35,30 39,88 22,1 40,8 64,8 58,0 108,-22 154,-38 77,-26 192,-46 276,-18 36,13 61,17 101,35 160,72 247,32 411,72 114,28 125,10 236,39 100,25 99,94 191,79 36,-6 88,13 114,22 54,17 145,54 182,93 32,32 20,28 72,63 83,55 181,127 288,127l1 0 46 0c13,0 26,-1 37,-3 19,-4 16,-6 23,-22 43,-111 13,-108 -72,-185 -105,-94 -197,-123 -286,-189 -48,-37 -122,-103 -170,-144 -11,-9 -16,-17 -27,-26l-273 -253c-9,-10 -16,-17 -25,-26l-28 -29c-16,-16 -37,-35 -60,-44 -24,-8 -61,-10 -82,-20 -27,-14 -115,-144 -139,-177 -31,-43 -53,-83 -95,-116l-243 -179c-67,-53 -107,-97 -158,-161 -37,-47 -6,-14 -50,-54 -32,-28 -37,-24 -33,-67 84,-19 65,-26 72,-55 -20,-14 -41,-36 -79,-15 -34,19 -25,33 -77,38 -39,4 -63,9 -108,9 -24,0 -29,-4 -51,-5 -20,0 -40,0 -60,0z"/>
  </g>
 </g>
</svg>
