<?xml version="1.0" encoding="UTF-8"?>
<!DOCTYPE svg PUBLIC "-//W3C//DTD SVG 1.1//EN" "http://www.w3.org/Graphics/SVG/1.1/DTD/svg11.dtd">
<!-- Creator: CorelDRAW X7 -->
<svg xmlns="http://www.w3.org/2000/svg" xml:space="preserve" width="135.466mm" height="97.633mm" version="1.1" style="shape-rendering:geometricPrecision; text-rendering:geometricPrecision; image-rendering:optimizeQuality; fill-rule:evenodd; clip-rule:evenodd"
viewBox="0 0 8632 6222"
 xmlns:xlink="http://www.w3.org/1999/xlink">
 <defs>
  <style type="text/css">
   <![CDATA[
    .fil0 {fill:#00A2E9}
   ]]>
  </style>
 </defs>
 <g id="Layer_x0020_1">
  <metadata id="CorelCorpID_0Corel-Layer"/>
  <g id="_2739054882208">
   <g>
    <g>
     <path class="fil0" d="M4675 5157c1106,0 2006,-900 2006,-2006 0,-1105 -900,-2005 -2006,-2005 -1105,0 -2005,899 -2005,2005 0,1106 900,2006 2005,2006z"/>
     <path class="fil0" d="M4675 5695c1405,0 2544,-1139 2544,-2544 0,-1405 -1139,-2543 -2544,-2543 -1404,0 -2543,1138 -2543,2543 0,1405 1139,2544 2543,2544zm0 -4698c1188,0 2154,967 2154,2154 0,1188 -966,2154 -2154,2154 -1187,0 -2153,-966 -2153,-2154 0,-1187 966,-2154 2153,-2154z"/>
     <path class="fil0" d="M8632 5931l-148 -5708c0,-123 -100,-223 -223,-223 -33,0 -63,8 -91,20l0 -2c0,0 -6,4 -14,10 -22,12 -41,26 -57,44 -163,133 -683,678 -726,1415 -66,1124 480,1579 666,1996l-149 2448c0,123 248,223 371,223 123,0 371,-100 371,-223z"/>
     <path class="fil0" d="M389 2454l384 192c44,21 92,38 142,49l-148 3340c0,103 248,187 371,187 123,0 371,-84 371,-187l-149 -3357c53,-16 103,-36 147,-63l285 -173c205,-126 360,-401 360,-642l0 -1496c0,-123 -100,-223 -223,-223 -123,0 -222,100 -222,223l0 1348 -124 0 0 -1348c0,-123 -100,-223 -223,-223 -122,0 -222,100 -222,223l0 1348 -124 0 0 -1348c0,-123 -100,-223 -223,-223 -123,0 -223,100 -223,223l0 1348 -123 0 0 -1300c0,-123 -99,-223 -222,-223 -123,0 -223,100 -223,223l0 1473c0,248 167,518 389,629z"/>
    </g>
   </g>
   <g>
   </g>
   <g>
   </g>
   <g>
   </g>
   <g>
   </g>
   <g>
   </g>
   <g>
   </g>
   <g>
   </g>
   <g>
   </g>
   <g>
   </g>
   <g>
   </g>
   <g>
   </g>
   <g>
   </g>
   <g>
   </g>
   <g>
   </g>
   <g>
   </g>
  </g>
 </g>
</svg>
