<?xml version="1.0" encoding="UTF-8"?>
<!DOCTYPE svg PUBLIC "-//W3C//DTD SVG 1.1//EN" "http://www.w3.org/Graphics/SVG/1.1/DTD/svg11.dtd">
<!-- Creator: CorelDRAW X7 -->
<svg xmlns="http://www.w3.org/2000/svg" xml:space="preserve" width="135.45mm" height="97.6328mm" version="1.1" style="shape-rendering:geometricPrecision; text-rendering:geometricPrecision; image-rendering:optimizeQuality; fill-rule:evenodd; clip-rule:evenodd"
viewBox="0 0 6405 4617"
 xmlns:xlink="http://www.w3.org/1999/xlink">
 <defs>
  <style type="text/css">
   <![CDATA[
    .fil0 {fill:#FEFEFE}
   ]]>
  </style>
 </defs>
 <g id="Layer_x0020_1">
  <metadata id="CorelCorpID_0Corel-Layer"/>
  <g id="_2135453746608">
   <g id="_2739054882208">
    <g>
     <g>
      <path class="fil0" d="M3469 3827c821,0 1488,-668 1488,-1489 0,-820 -667,-1488 -1488,-1488 -820,0 -1488,667 -1488,1488 0,821 668,1489 1488,1489z"/>
      <path class="fil0" d="M3469 4226c1042,0 1888,-845 1888,-1888 0,-1042 -846,-1887 -1888,-1887 -1042,0 -1887,845 -1887,1887 0,1043 845,1888 1887,1888zm0 -3486c881,0 1598,717 1598,1598 0,882 -717,1598 -1598,1598 -881,0 -1598,-716 -1598,-1598 0,-881 717,-1598 1598,-1598z"/>
      <path class="fil0" d="M6405 4401l-110 -4236c0,-91 -74,-165 -165,-165 -25,0 -47,6 -68,15l0 -2c0,0 -4,3 -10,8 -16,9 -31,19 -42,32 -121,99 -507,504 -539,1050 -49,834 356,1172 494,1481l-110 1817c0,91 184,165 275,165 91,0 275,-74 275,-165l0 0z"/>
      <path class="fil0" d="M289 1821l285 142c32,16 68,29 105,37l-110 2478c0,77 184,139 275,139 92,0 276,-62 276,-139l-111 -2491c39,-12 77,-27 109,-47l212 -128c152,-93 267,-298 267,-476l0 -1110c0,-92 -74,-166 -166,-166 -91,0 -164,74 -164,166l0 1000 -92 0 0 -1000c0,-92 -75,-166 -166,-166 -90,0 -165,74 -165,166l0 1000 -92 0 0 -1000c0,-92 -74,-166 -165,-166 -91,0 -166,74 -166,166l0 1000 -91 0 0 -965c0,-91 -73,-165 -165,-165 -91,0 -165,74 -165,165l0 1093c0,184 124,385 289,467l0 0z"/>
     </g>
    </g>
    <g>
    </g>
    <g>
    </g>
    <g>
    </g>
    <g>
    </g>
    <g>
    </g>
    <g>
    </g>
    <g>
    </g>
    <g>
    </g>
    <g>
    </g>
    <g>
    </g>
    <g>
    </g>
    <g>
    </g>
    <g>
    </g>
    <g>
    </g>
    <g>
    </g>
   </g>
  </g>
 </g>
</svg>
